<?xml version="1.0" encoding="UTF-8" standalone="no"?>
<!-- Generator: Adobe Illustrator 18.0.0, SVG Export Plug-In . SVG Version: 6.00 Build 0)  -->

<svg
   xmlns:dc="http://purl.org/dc/elements/1.1/"
   xmlns:cc="http://creativecommons.org/ns#"
   xmlns:rdf="http://www.w3.org/1999/02/22-rdf-syntax-ns#"
   xmlns:svg="http://www.w3.org/2000/svg"
   xmlns="http://www.w3.org/2000/svg"
   xmlns:sodipodi="http://sodipodi.sourceforge.net/DTD/sodipodi-0.dtd"
   xmlns:inkscape="http://www.inkscape.org/namespaces/inkscape"
   version="1.1"
   id="Capa_1"
   x="0px"
   y="0px"
   viewBox="0 0 58 58"
   style="enable-background:new 0 0 58 58;"
   xml:space="preserve"
   sodipodi:docname="TESTEOVO.svg"
   inkscape:export-filename="C:\Users\Michele\Downloads\egg.png"
   inkscape:export-xdpi="662.06897"
   inkscape:export-ydpi="662.06897"
   inkscape:version="0.92.4 (5da689c313, 2019-01-14)"><metadata
   id="metadata1066"><rdf:RDF><cc:Work
       rdf:about=""><dc:format>image/svg+xml</dc:format><dc:type
         rdf:resource="http://purl.org/dc/dcmitype/StillImage" /><dc:title></dc:title></cc:Work></rdf:RDF></metadata><defs
   id="defs1064" /><sodipodi:namedview
   pagecolor="#ffffff"
   bordercolor="#666666"
   borderopacity="1"
   objecttolerance="10"
   gridtolerance="10"
   guidetolerance="10"
   inkscape:pageopacity="0"
   inkscape:pageshadow="2"
   inkscape:window-width="1366"
   inkscape:window-height="705"
   id="namedview1062"
   showgrid="false"
   inkscape:zoom="8.137931"
   inkscape:cx="42.029981"
   inkscape:cy="28.093979"
   inkscape:window-x="-8"
   inkscape:window-y="-8"
   inkscape:window-maximized="1"
   inkscape:current-layer="Capa_1" />

<g
   id="g1031">
</g>
<g
   id="g1033">
</g>
<g
   id="g1035">
</g>
<g
   id="g1037">
</g>
<g
   id="g1039">
</g>
<g
   id="g1041">
</g>
<g
   id="g1043">
</g>
<g
   id="g1045">
</g>
<g
   id="g1047">
</g>
<g
   id="g1049">
</g>
<g
   id="g1051">
</g>
<g
   id="g1053">
</g>
<g
   id="g1055">
</g>
<g
   id="g1057">
</g>
<g
   id="g1059">
</g>
<rect
   style="opacity:1;fill:#ffeaa7;fill-opacity:1;fill-rule:nonzero;stroke:#f2f2f2;stroke-width:0;stroke-linecap:round;stroke-linejoin:bevel;stroke-miterlimit:0;stroke-dasharray:none;stroke-dashoffset:0;stroke-opacity:1;paint-order:stroke fill markers"
   id="rect1068"
   width="57.385593"
   height="50.75"
   x="0.36864406"
   y="0.24576263" /><rect
   style="opacity:1;fill:#ffffff;fill-opacity:1;fill-rule:nonzero;stroke:#f2f2f2;stroke-width:0;stroke-linecap:round;stroke-linejoin:bevel;stroke-miterlimit:0;stroke-dasharray:none;stroke-dashoffset:0;stroke-opacity:1;paint-order:stroke fill markers"
   id="rect1070"
   width="56.771187"
   height="34.038136"
   x="0.61440682"
   y="0.77118629" /><g
   id="g1029"
   transform="matrix(0.28869533,0,0,0.28869533,20.864002,3.3354575)"><path
     style="fill:#faf5e5"
     d="m 42.766,48.504 c 1.862,0.267 3.869,0.145 5.907,-0.451 4.582,-1.341 7.987,-4.967 8.586,-8.935 0.319,-2.113 -0.12,-4.069 -1.105,-5.717 -0.705,-1.18 -0.67,-2.644 0.136,-3.799 C 57.376,28.044 58,26.214 58,24.247 58,19.957 54.994,16.071 50.577,14.254 48.505,13.402 46.904,11.75 46.288,9.795 44.988,5.672 42.043,3.748 37.821,3.131 34.016,2.575 30.57,3.831 28.754,6.201 27.689,7.591 25.444,8.18 23.144,7.619 21.78,7.286 20.323,7.096 18.8,7.083 12.405,7.028 6.949,10.333 6.037,15.092 5.725,16.72 5.947,18.317 6.597,19.8 7.703,22.326 6.689,25.024 4.09,26.922 1.57,28.763 0,31.265 0,34.013 c 0,3.285 5.326,5.906 9.847,7.47 3.426,1.186 5.511,3.499 5.993,6.18 0.006,0.036 0.013,0.071 0.02,0.107 0.866,4.452 5.763,7.431 11.529,7.219 4.608,-0.169 8.618,-2.157 11.054,-4.862 1.065,-1.182 2.787,-1.843 4.323,-1.623 z"
     id="path1011"
     inkscape:connector-curvature="0" /><circle
     style="fill:#f8b600"
     cx="36.5"
     cy="29.5"
     r="12.5"
     id="circle1013" /><path
     style="fill:#f4c45b"
     d="m 34,22.374 c -0.428,0 -0.823,-0.276 -0.956,-0.706 -0.162,-0.527 0.134,-1.087 0.662,-1.25 C 34.607,20.141 35.548,20 36.5,20 c 0.553,0 1,0.447 1,1 0,0.553 -0.447,1 -1,1 -0.753,0 -1.495,0.111 -2.206,0.33 -0.098,0.03 -0.197,0.044 -0.294,0.044 z"
     id="path1015"
     inkscape:connector-curvature="0" /><path
     style="fill:#f4c45b"
     d="m 28,30.5 c -0.553,0 -1,-0.447 -1,-1 0,-2.807 1.231,-5.454 3.379,-7.265 0.423,-0.356 1.053,-0.301 1.409,0.12 0.355,0.422 0.302,1.053 -0.12,1.409 C 29.973,25.194 29,27.284 29,29.5 c 0,0.553 -0.447,1 -1,1 z"
     id="path1017"
     inkscape:connector-curvature="0" /><path
     style="fill:#ffffff"
     d="M 9.999,17 C 9.811,17 9.622,16.947 9.453,16.837 8.991,16.535 8.86,15.916 9.163,15.453 c 1.279,-1.96 2.998,-3.429 5.107,-4.368 0.506,-0.223 1.096,0.003 1.32,0.508 0.224,0.504 -0.003,1.096 -0.508,1.32 -1.752,0.779 -3.181,2.002 -4.246,3.634 C 10.646,16.841 10.325,17 9.999,17 Z"
     id="path1019"
     inkscape:connector-curvature="0" /><path
     style="fill:#ffffff"
     d="m 21.001,12 c -0.046,0 -0.092,-0.003 -0.139,-0.01 -0.021,-0.002 -0.922,-0.119 -2.211,0.005 -0.557,0.052 -1.039,-0.349 -1.092,-0.898 -0.054,-0.55 0.349,-1.039 0.898,-1.092 1.551,-0.15 2.636,-0.001 2.682,0.005 0.547,0.077 0.928,0.583 0.851,1.13 -0.07,0.5 -0.499,0.86 -0.989,0.86 z"
     id="path1021"
     inkscape:connector-curvature="0" /><path
     style="fill:#ffffff"
     d="m 24.239,50.966 c -3.095,0 -5.8,-2.218 -6.334,-5.312 -0.094,-0.544 0.271,-1.062 0.815,-1.155 0.543,-0.095 1.062,0.271 1.155,0.815 0.396,2.291 2.521,3.88 4.851,3.625 l 0.149,-0.017 c 0.554,-0.069 1.048,0.32 1.116,0.868 0.068,0.548 -0.32,1.048 -0.868,1.116 l -0.163,0.019 c -0.241,0.028 -0.482,0.041 -0.721,0.041 z"
     id="path1023"
     inkscape:connector-curvature="0" /><path
     style="fill:#ffffff"
     d="m 17.96,44 c -0.337,0 -0.665,-0.17 -0.854,-0.478 -0.722,-1.179 -1.619,-1.749 -1.628,-1.755 -0.472,-0.288 -0.62,-0.903 -0.331,-1.374 0.288,-0.472 0.905,-0.622 1.374,-0.331 0.054,0.032 1.309,0.812 2.29,2.415 0.289,0.472 0.141,1.087 -0.33,1.375 C 18.318,43.952 18.138,44 17.96,44 Z"
     id="path1025"
     inkscape:connector-curvature="0" /><ellipse
     transform="matrix(0.83,-0.5577,0.5577,0.83,-12.2608,28.5507)"
     style="fill:#f79b21"
     cx="40.714001"
     cy="34.391998"
     rx="7.5"
     ry="4.5"
     id="ellipse1027" /></g><text
   xml:space="preserve"
   style="font-style:normal;font-variant:normal;font-weight:normal;font-stretch:normal;font-size:2.66666675px;line-height:1.25;font-family:'Arial Rounded MT Bold';-inkscape-font-specification:'Arial Rounded MT Bold, Normal';font-variant-ligatures:normal;font-variant-caps:normal;font-variant-numeric:normal;font-feature-settings:normal;text-align:center;letter-spacing:0px;word-spacing:0px;writing-mode:lr-tb;text-anchor:middle;fill:#000000;fill-opacity:1;stroke:none"
   x="29.122881"
   y="24.944914"
   id="text1194"><tspan
     sodipodi:role="line"
     id="tspan1192"
     x="29.122881"
     y="24.944914">Sua doação ajuda a levar</tspan><tspan
     sodipodi:role="line"
     x="29.122881"
     y="28.278248"
     id="tspan1196">comida para pessoas necessitadas.</tspan></text>
<text
   xml:space="preserve"
   style="font-style:normal;font-variant:normal;font-weight:normal;font-stretch:normal;font-size:2.66666675px;line-height:1.25;font-family:'Arial Rounded MT Bold';-inkscape-font-specification:'Arial Rounded MT Bold, Normal';font-variant-ligatures:normal;font-variant-caps:normal;font-variant-numeric:normal;font-feature-settings:normal;text-align:center;letter-spacing:0px;word-spacing:0px;writing-mode:lr-tb;text-anchor:middle;fill:#000000;fill-opacity:1;stroke:none"
   x="28.911016"
   y="42.885593"
   id="text1200"><tspan
     sodipodi:role="line"
     id="tspan1198"
     x="28.911016"
     y="42.885593"
     style="font-style:normal;font-variant:normal;font-weight:normal;font-stretch:normal;font-family:Arial;-inkscape-font-specification:Arial">QUERO DOAR</tspan></text>
<text
   xml:space="preserve"
   style="font-style:normal;font-variant:normal;font-weight:normal;font-stretch:normal;font-size:2.66666675px;line-height:1.25;font-family:'Arial Rounded MT Bold';-inkscape-font-specification:'Arial Rounded MT Bold, Normal';font-variant-ligatures:normal;font-variant-caps:normal;font-variant-numeric:normal;font-feature-settings:normal;text-align:center;letter-spacing:0px;word-spacing:0px;writing-mode:lr-tb;text-anchor:middle;fill:#f69310;fill-opacity:1;stroke:none;"
   x="28.508476"
   y="46.449154"
   id="text1204"><tspan
     sodipodi:role="line"
     id="tspan1202"
     x="28.508476"
     y="46.449154"
     style="font-style:normal;font-variant:normal;font-weight:normal;font-stretch:normal;font-family:Arial;-inkscape-font-specification:Arial;fill:#d87f08;fill-opacity:1">R$ 20</tspan></text>
<rect
   style="opacity:1;fill:#d87f08;fill-opacity:1;fill-rule:nonzero;stroke:#f2f2f2;stroke-width:0;stroke-linecap:round;stroke-linejoin:bevel;stroke-miterlimit:0;stroke-dasharray:none;stroke-dashoffset:0;stroke-opacity:1;paint-order:stroke fill markers"
   id="rect2019"
   width="15.360169"
   height="0.12288135"
   x="20.720337"
   y="47.601696" /></svg>